<svg width="229" height="135" viewBox="0 0 229 135" fill="none" xmlns="http://www.w3.org/2000/svg"><g clip-path="url(#a)" fill="#00b764"><path d="M.055 87.385a14.93 14.93 0 0 1 5.64-8.13c7.61-5.2 18.66-.12 19.61 9a13.1 13.1 0 0 1-1.24 7.28c-.33.68-.55 1.31 0 2 4 4.24 7.57 8.85 12.48 12.14 4.72 3.16 9.73 5.26 15.58 4.84 2.37-.17 2.46.06 3.05 2.41.3 1.16.6 2.32 1 3.44s.19 1.63-1.15 1.75c-11 1-20-3.19-27.92-10.34a117 117 0 0 1-8.49-9 1.8 1.8 0 0 0-2.11-.73 12.76 12.76 0 0 1-10.069-1.074 12.77 12.77 0 0 1-6.121-8.066 4 4 0 0 0-.26-.59zm18.3 2.52a5.49 5.49 0 0 0-5.73-5.76 5.81 5.81 0 0 0-5.64 5.81 5.61 5.61 0 0 0 5.77 5.57 5.282 5.282 0 0 0 5.6-5.62m84.44-90a14.5 14.5 0 0 1 7.73 3.5 12.65 12.65 0 0 1-2.76 20.61 3.19 3.19 0 0 0-2 3.38c.06 10.44 0 16.83 0 27.27 0 1.1.28 2.28-1.2 2.88-2 .8-3.87 3.22-5.85 1.83-.74-.52-.52-1.39-.52-2.13v-30.52a2.24 2.24 0 0 0-1.48-2.41 12.64 12.64 0 0 1-7.28-13.78c.87-5.52 5.19-9.49 11.26-10.4q.404-.085.79-.23zm4.86 13a5.63 5.63 0 0 0-1.538-4.072 5.64 5.64 0 0 0-3.982-1.758 5.55 5.55 0 0 0-5.87 5.63 5.7 5.7 0 1 0 11.39.2m121.33 102.19-.52 1.88a12.58 12.58 0 0 1-11.59 9.47 12.2 12.2 0 0 1-7.122-1.692 12.2 12.2 0 0 1-4.878-5.458 2.824 2.824 0 0 0-3-1.87c-9.08.06-18.17 0-27.25 0-2.23 0-2.39-.24-2-2.5q.18-1.455.21-2.92c.08-1.86.34-2.18 2.23-2.18 6.53 0 24.37-.09 26.76 0a3.004 3.004 0 0 0 3.16-1.86 12.6 12.6 0 0 1 3.685-4.45 12.63 12.63 0 0 1 11.053-2.083 12.6 12.6 0 0 1 5.052 2.803c2.39 2.11 3.52 4.92 4.25 7.92zm-12.72 4.26a5.68 5.68 0 0 0 5.72-5.66 5.92 5.92 0 0 0-5.75-5.73 5.675 5.675 0 0 0-5.8 5.76c0 3.36 2.35 5.63 5.83 5.63m-22.74-46.65v-7.18a2.39 2.39 0 0 0-1.46-2.45c-6.08-3.25-8.74-10.46-6.08-16.4a12.74 12.74 0 0 1 16.54-6.71c5.14 2 7.57 6.2 8 11.53.37 4.51-2.94 9.75-7.32 11.63a3 3 0 0 0-2.14 3.29c.12 4.3 0 8.6 0 12.89a15.88 15.88 0 0 1-9.874 14.986 15.9 15.9 0 0 1-6.206 1.174h-11.58a2.28 2.28 0 0 1-2.57-1.72 20 20 0 0 0-2.05-4.04c-.87-1.48-.72-1.77 1-1.78h14.69a8.93 8.93 0 0 0 5.29-1.35 8 8 0 0 0 3.78-6.84zm4.33-26.54c-3.45 0-5.85 2.24-5.85 5.54a5.75 5.75 0 0 0 5.58 5.8 5.667 5.667 0 0 0 5.82-5.7 5.26 5.26 0 0 0-3.354-5.297 5.3 5.3 0 0 0-2.196-.343m-116.04 4.67v-11.26c0-5.07-3.44-8.46-8.52-8.51a5 5 0 0 1-.65 0c-2.63-.38-4.28.38-5.86 2.9a12.31 12.31 0 0 1-17.49 3.38 12.55 12.55 0 0 1-3.43-17.56c2.84-4 6.78-6.17 11.76-5.62a12.34 12.34 0 0 1 10.54 7.9 2.07 2.07 0 0 0 2.19 1.5c2.87 0 5.74-.2 8.54.8 6.31 2.27 10.36 7.92 10.51 15.24.15 7 0 14 .06 21a2 2 0 0 1-1.71 2.17 41 41 0 0 0-4 1.32c-1.72.63-1.9.55-1.91-1.24-.04-3.95-.03-7.95-.03-12.02m-31-24a5.7 5.7 0 0 0 5.65 5.74 6 6 0 0 0 5.74-5.62 5.85 5.85 0 0 0-5.7-5.95 5.59 5.59 0 0 0-5.73 5.9zm65.37 22.5c-.18-7.61 2.57-11.36 6.4-17.18 3.46-5.25 8.35-9.13 12.88-13.34a2.25 2.25 0 0 0 .76-2.65A12.645 12.645 0 0 1 144.77.46a12.64 12.64 0 0 1 15.705 8.545c2.41 8.63-3.09 15.82-11.55 16.61a11 11 0 0 1-6.27-1.48c-.58-.32-1.12-.72-1.75-.09-3.81 3.87-8.29 7-11.51 11.51a33.1 33.1 0 0 0-5 9.85c-1 3.21-.75 2.52-.73 5.83 0 2.29.12 2.32-2.15 2.39-1-.07-2.27 0-3.44-.18a2 2 0 0 1-1.548-.76 2 2 0 0 1-.382-1.68c.08-.7.04-1.41.04-1.67m32.13-30.81a5.8 5.8 0 0 0 5.91-5.88 5.71 5.71 0 0 0-6.09-5.52 5.79 5.79 0 0 0-5.46 5.78 5.62 5.62 0 0 0 1.653 3.98 5.62 5.62 0 0 0 3.987 1.64m3.15 20.68h5.22a1.93 1.93 0 0 0 2-1.3c2.43-5.24 7.33-8.22 12.6-7.77a12.82 12.82 0 0 1 11.48 9.82c2.22 8.18-5.21 16.56-13.62 15.55a12.8 12.8 0 0 1-10.35-7.46 2 2 0 0 0-2-1.24c-3.15 0-6.31 0-9.46.05a7.69 7.69 0 0 0-7.59 7.43 7 7 0 0 0 0 1.5c0 1.41-.57 2.22-2 1.68-1.74-.67-6.09-1.93-6-3.73a22 22 0 0 1 2-6 15.33 15.33 0 0 1 13.5-8.54c1.39-.04 2.81.01 4.22.01m13.27 3.19c.06 3.64 2.46 6.29 5.66 6.26a6.003 6.003 0 0 0 5.75-5.75 5.85 5.85 0 0 0-1.741-4.159 5.86 5.86 0 0 0-4.179-1.691 5.61 5.61 0 0 0-5.49 5.34m-126.25 40.24c0-1.88-.08-3.41 0-4.93a2.52 2.52 0 0 0-1.72-2.74 12.55 12.55 0 0 1-6.87-14.53 12.71 12.71 0 0 1 24.82.66c1 5.87-1.38 11-6.64 13.65a3.26 3.26 0 0 0-2.05 3.45c.14 3.52-.21 7.06.2 10.58.37 3.16 4.49 7 7.39 8.15 1.17.48 1.33 1 .78 2.08-.67 1.31-.43 3.47-1 4.84-.39 1-.94 1.35-2 .88-5.5-2.49-11.91-9.14-12.74-15.12a55 55 0 0 1-.17-6.97m3.64-13.52c3.48 0 5.79-2.24 5.78-5.61a5.66 5.66 0 0 0-5.63-5.73 5.74 5.74 0 0 0-5.33 3.605 5.7 5.7 0 0 0-.41 2.225 5.47 5.47 0 0 0 5.59 5.51m128.16 38.19v2.09q-.015 1.265-.18 2.52a26.23 26.23 0 0 1-21.27 22.37c-1.91.37-3.85.43-5.77.7h-60.08a6 6 0 0 0-.73-.14 28.6 28.6 0 0 1-7.93-1.57c-8.21-3.08-14.19-8.36-16.77-16.91a32.2 32.2 0 0 1-1.06-10.11 25.87 25.87 0 0 1 5.59-15.83 26.6 26.6 0 0 1 8.39-7 6.34 6.34 0 0 0 3.44-4.11q.195-.708.49-1.38c3.41-8.59 10.54-12.61 18.73-12.29a10 10 0 0 0 7.05-2.39 30.9 30.9 0 0 1 11.23-6.2 39 39 0 0 1 4.75-1 10.7 10.7 0 0 1 2.19-.17c2.33 0 6.09.21 6.68.33 12.19 2.64 21 9.22 24.91 21.46a6.9 6.9 0 0 0 4.04 4.56 26.5 26.5 0 0 1 14.73 16.4c.562 1.72.987 3.482 1.27 5.27.194 1.123.294 2.26.3 3.4m-57 19.67h26.7a49 49 0 0 0 6.39-.4c9-1.12 16.14-9 16-17.93s-3.75-15.63-12.18-19.42a13.06 13.06 0 0 1-7.79-9.1 19.5 19.5 0 0 0-7.35-10.92c-5.47-4.19-11.57-6.3-18.53-5.14a24.1 24.1 0 0 0-12 6 13.9 13.9 0 0 1-10.73 3.58c-6-.49-10.22 2.31-12.19 8l-.35 1a12.9 12.9 0 0 1-5.07 6.69c-.91.62-1.86 1.17-2.81 1.74a17.45 17.45 0 0 0-8.51 12 26.5 26.5 0 0 0-.29 7.44 16.12 16.12 0 0 0 4.49 10.29c4.26 4.35 9.56 6.2 15.53 6.23 9.54-.03 19.09-.06 28.65-.06z"/></g><defs><clipPath id="a"><path fill="#fff" d="M0 0h229v135H0z"/></clipPath></defs></svg>
