<svg xmlns="http://www.w3.org/2000/svg" width="1920" viewBox="0 0 1440 810" height="1080" version="1.0"><defs><clipPath id="a"><path d="M135.57.004H1303v809.992H135.57Zm0 0"/></clipPath></defs><g clip-path="url(#a)"><path fill="#00b764" d="M1302.398 527.25v21.43c-.101 8.64-.718 17.27-1.843 25.84a268.97 268.97 0 0 1-71.711 150.156 268.8 268.8 0 0 1-146.305 79.203c-19.574 3.793-39.46 4.41-59.14 7.18h-615.82a60 60 0 0 0-7.485-1.438 292.5 292.5 0 0 1-81.281-16.098c-84.153-31.578-145.446-85.714-171.891-173.378a329.8 329.8 0 0 1-10.867-103.66 265.3 265.3 0 0 1 57.297-162.305 272.6 272.6 0 0 1 86-71.774 65 65 0 0 0 22.3-17.156 65.1 65.1 0 0 0 12.957-24.98 106 106 0 0 1 5.024-14.153c34.953-88.074 108.035-129.289 191.984-126.008a102.5 102.5 0 0 0 72.262-24.507 316.4 316.4 0 0 1 115.105-63.567c16-4.433 32.262-7.86 48.688-10.254A109.8 109.8 0 0 1 770.122.04c23.882 0 62.421 2.152 68.468 3.383 124.95 27.066 215.25 94.531 255.328 220.031a70.72 70.72 0 0 0 41.41 46.754 271.8 271.8 0 0 1 93.793 67.633 271.9 271.9 0 0 1 57.184 100.515 348 348 0 0 1 13.02 54.036 210 210 0 0 1 3.073 34.859M718.152 728.93h273.676a500 500 0 0 0 65.496-4.102c92.25-11.484 165.434-92.277 163.996-183.836-1.433-91.562-38.437-160.258-124.84-199.117a133.87 133.87 0 0 1-79.847-93.3 199.94 199.94 0 0 0-75.336-111.966c-56.07-42.96-118.594-64.593-189.934-52.703a247 247 0 0 0-123 61.52 142.45 142.45 0 0 1-109.984 36.707c-61.5-5.024-104.754 23.683-124.945 82.023l-3.59 10.254a132.37 132.37 0 0 1-51.965 68.594c-9.328 6.355-19.067 11.996-28.805 17.84a178.94 178.94 0 0 0-87.227 123.04 271.7 271.7 0 0 0-2.972 76.28 165.3 165.3 0 0 0 46.023 105.504c43.664 44.602 97.989 63.57 159.184 63.879 97.785-.309 195.672-.617 293.66-.617Zm0 0"/></g></svg>
